<svg width="49" height="49" viewBox="0 0 49 49" fill="none" xmlns="http://www.w3.org/2000/svg">
<circle cx="24.5" cy="24.5" r="24.5" fill="#EDE8E3"/>
<path d="M30.2195 28.4348C30.2195 26.7256 29.2675 25.4924 27.5366 24.8866C28.9213 24.1726 29.7219 23.0259 29.7219 21.5979C29.7219 18.9367 27.7097 17.4655 24.4427 17.4655H18.6011V33H24.6807C28.0992 33 30.2195 31.3124 30.2195 28.4348ZM24.1831 20.0618C25.7841 20.0618 26.6063 20.7541 26.6063 21.8576C26.6063 22.9826 25.7841 23.675 24.1831 23.675H21.5868V20.0618H24.1831ZM24.4211 26.2929C26.1952 26.2929 27.1256 27.0718 27.1256 28.305C27.1256 29.6248 26.1952 30.4037 24.4211 30.4037H21.5868V26.2929H24.4211Z" fill="#060710"/>
</svg>
